<mxfile host="Electron" modified="2023-10-06T00:27:55.672Z" agent="Mozilla/5.0 (Windows NT 10.0; Win64; x64) AppleWebKit/537.36 (KHTML, like Gecko) draw.io/22.0.1 Chrome/114.0.5735.289 Electron/25.8.4 Safari/537.36" etag="cyNibYOiiWkwrZnMfji1" version="22.0.1" type="device">
  <diagram name="Page-1" id="uuyuKhumvK86tlwzJzuZ">
    <mxGraphModel dx="969" dy="716" grid="1" gridSize="10" guides="1" tooltips="1" connect="1" arrows="1" fold="1" page="1" pageScale="1" pageWidth="1100" pageHeight="850" math="0" shadow="0">
      <root>
        <mxCell id="0" />
        <mxCell id="1" parent="0" />
        <mxCell id="f7EbHPb4pMbMoE2O3Rs9-33" style="edgeStyle=orthogonalEdgeStyle;rounded=0;orthogonalLoop=1;jettySize=auto;html=1;exitX=0;exitY=0.25;exitDx=0;exitDy=0;entryX=1;entryY=0.25;entryDx=0;entryDy=0;" edge="1" parent="1" source="f7EbHPb4pMbMoE2O3Rs9-2" target="f7EbHPb4pMbMoE2O3Rs9-21">
          <mxGeometry relative="1" as="geometry" />
        </mxCell>
        <mxCell id="f7EbHPb4pMbMoE2O3Rs9-34" style="edgeStyle=orthogonalEdgeStyle;rounded=0;orthogonalLoop=1;jettySize=auto;html=1;exitX=0;exitY=0.75;exitDx=0;exitDy=0;entryX=1;entryY=0.75;entryDx=0;entryDy=0;" edge="1" parent="1" source="f7EbHPb4pMbMoE2O3Rs9-2" target="f7EbHPb4pMbMoE2O3Rs9-21">
          <mxGeometry relative="1" as="geometry" />
        </mxCell>
        <mxCell id="f7EbHPb4pMbMoE2O3Rs9-2" value="" style="rounded=0;whiteSpace=wrap;html=1;" vertex="1" parent="1">
          <mxGeometry x="730" y="270" width="130" height="220" as="geometry" />
        </mxCell>
        <mxCell id="f7EbHPb4pMbMoE2O3Rs9-3" value="" style="triangle;whiteSpace=wrap;html=1;rotation=-90;" vertex="1" parent="1">
          <mxGeometry x="775" y="460" width="40" height="20" as="geometry" />
        </mxCell>
        <mxCell id="f7EbHPb4pMbMoE2O3Rs9-4" value="Car Detector" style="text;html=1;align=center;verticalAlign=middle;resizable=0;points=[];autosize=1;strokeColor=none;fillColor=none;" vertex="1" parent="1">
          <mxGeometry x="750" y="270" width="90" height="30" as="geometry" />
        </mxCell>
        <mxCell id="f7EbHPb4pMbMoE2O3Rs9-5" value="reset" style="text;html=1;align=center;verticalAlign=middle;resizable=0;points=[];autosize=1;strokeColor=none;fillColor=none;" vertex="1" parent="1">
          <mxGeometry x="990" y="480" width="50" height="30" as="geometry" />
        </mxCell>
        <mxCell id="f7EbHPb4pMbMoE2O3Rs9-48" style="edgeStyle=orthogonalEdgeStyle;rounded=0;orthogonalLoop=1;jettySize=auto;html=1;entryX=1;entryY=0.5;entryDx=0;entryDy=0;" edge="1" parent="1" source="f7EbHPb4pMbMoE2O3Rs9-21" target="f7EbHPb4pMbMoE2O3Rs9-45">
          <mxGeometry relative="1" as="geometry" />
        </mxCell>
        <mxCell id="f7EbHPb4pMbMoE2O3Rs9-21" value="" style="rounded=0;whiteSpace=wrap;html=1;" vertex="1" parent="1">
          <mxGeometry x="430" y="270" width="130" height="220" as="geometry" />
        </mxCell>
        <mxCell id="f7EbHPb4pMbMoE2O3Rs9-22" value="" style="triangle;whiteSpace=wrap;html=1;rotation=-90;" vertex="1" parent="1">
          <mxGeometry x="475" y="460" width="40" height="20" as="geometry" />
        </mxCell>
        <mxCell id="f7EbHPb4pMbMoE2O3Rs9-23" value="Car Counter" style="text;html=1;align=center;verticalAlign=middle;resizable=0;points=[];autosize=1;strokeColor=none;fillColor=none;" vertex="1" parent="1">
          <mxGeometry x="450" y="270" width="90" height="30" as="geometry" />
        </mxCell>
        <mxCell id="f7EbHPb4pMbMoE2O3Rs9-28" style="edgeStyle=orthogonalEdgeStyle;rounded=0;orthogonalLoop=1;jettySize=auto;html=1;entryX=1;entryY=0.25;entryDx=0;entryDy=0;" edge="1" parent="1" source="f7EbHPb4pMbMoE2O3Rs9-24" target="f7EbHPb4pMbMoE2O3Rs9-2">
          <mxGeometry relative="1" as="geometry" />
        </mxCell>
        <mxCell id="f7EbHPb4pMbMoE2O3Rs9-24" value="GPIO[28]" style="text;html=1;align=center;verticalAlign=middle;resizable=0;points=[];autosize=1;strokeColor=none;fillColor=none;" vertex="1" parent="1">
          <mxGeometry x="980" y="310" width="70" height="30" as="geometry" />
        </mxCell>
        <mxCell id="f7EbHPb4pMbMoE2O3Rs9-25" value="GPIO[30]" style="text;html=1;align=center;verticalAlign=middle;resizable=0;points=[];autosize=1;strokeColor=none;fillColor=none;" vertex="1" parent="1">
          <mxGeometry x="980" y="365" width="70" height="30" as="geometry" />
        </mxCell>
        <mxCell id="f7EbHPb4pMbMoE2O3Rs9-27" style="edgeStyle=orthogonalEdgeStyle;rounded=0;orthogonalLoop=1;jettySize=auto;html=1;entryX=1;entryY=0.5;entryDx=0;entryDy=0;" edge="1" parent="1" source="f7EbHPb4pMbMoE2O3Rs9-25" target="f7EbHPb4pMbMoE2O3Rs9-2">
          <mxGeometry relative="1" as="geometry" />
        </mxCell>
        <mxCell id="f7EbHPb4pMbMoE2O3Rs9-29" style="edgeStyle=orthogonalEdgeStyle;rounded=0;orthogonalLoop=1;jettySize=auto;html=1;entryX=1.007;entryY=0.843;entryDx=0;entryDy=0;entryPerimeter=0;" edge="1" parent="1" source="f7EbHPb4pMbMoE2O3Rs9-5" target="f7EbHPb4pMbMoE2O3Rs9-2">
          <mxGeometry relative="1" as="geometry" />
        </mxCell>
        <mxCell id="f7EbHPb4pMbMoE2O3Rs9-30" value="outer" style="text;html=1;align=center;verticalAlign=middle;resizable=0;points=[];autosize=1;strokeColor=none;fillColor=none;" vertex="1" parent="1">
          <mxGeometry x="810" y="310" width="50" height="30" as="geometry" />
        </mxCell>
        <mxCell id="f7EbHPb4pMbMoE2O3Rs9-31" value="inner" style="text;html=1;align=center;verticalAlign=middle;resizable=0;points=[];autosize=1;strokeColor=none;fillColor=none;" vertex="1" parent="1">
          <mxGeometry x="810" y="365" width="50" height="30" as="geometry" />
        </mxCell>
        <mxCell id="f7EbHPb4pMbMoE2O3Rs9-35" value="enter" style="text;html=1;align=center;verticalAlign=middle;resizable=0;points=[];autosize=1;strokeColor=none;fillColor=none;" vertex="1" parent="1">
          <mxGeometry x="730" y="310" width="50" height="30" as="geometry" />
        </mxCell>
        <mxCell id="f7EbHPb4pMbMoE2O3Rs9-36" value="exit" style="text;html=1;align=center;verticalAlign=middle;resizable=0;points=[];autosize=1;strokeColor=none;fillColor=none;" vertex="1" parent="1">
          <mxGeometry x="730" y="418" width="40" height="30" as="geometry" />
        </mxCell>
        <mxCell id="f7EbHPb4pMbMoE2O3Rs9-37" value="incr" style="text;html=1;align=center;verticalAlign=middle;resizable=0;points=[];autosize=1;strokeColor=none;fillColor=none;" vertex="1" parent="1">
          <mxGeometry x="520" y="310" width="40" height="30" as="geometry" />
        </mxCell>
        <mxCell id="f7EbHPb4pMbMoE2O3Rs9-38" value="decr" style="text;html=1;align=center;verticalAlign=middle;resizable=0;points=[];autosize=1;strokeColor=none;fillColor=none;" vertex="1" parent="1">
          <mxGeometry x="510" y="418" width="50" height="30" as="geometry" />
        </mxCell>
        <mxCell id="f7EbHPb4pMbMoE2O3Rs9-40" value="reset" style="text;html=1;align=center;verticalAlign=middle;resizable=0;points=[];autosize=1;strokeColor=none;fillColor=none;" vertex="1" parent="1">
          <mxGeometry x="810" y="440" width="50" height="30" as="geometry" />
        </mxCell>
        <mxCell id="f7EbHPb4pMbMoE2O3Rs9-43" style="edgeStyle=orthogonalEdgeStyle;rounded=0;orthogonalLoop=1;jettySize=auto;html=1;entryX=0.998;entryY=0.871;entryDx=0;entryDy=0;entryPerimeter=0;" edge="1" parent="1" source="f7EbHPb4pMbMoE2O3Rs9-5" target="f7EbHPb4pMbMoE2O3Rs9-21">
          <mxGeometry relative="1" as="geometry">
            <Array as="points">
              <mxPoint x="1015" y="540" />
              <mxPoint x="650" y="540" />
              <mxPoint x="650" y="462" />
            </Array>
          </mxGeometry>
        </mxCell>
        <mxCell id="f7EbHPb4pMbMoE2O3Rs9-44" value="reset" style="text;html=1;align=center;verticalAlign=middle;resizable=0;points=[];autosize=1;strokeColor=none;fillColor=none;" vertex="1" parent="1">
          <mxGeometry x="510" y="448" width="50" height="30" as="geometry" />
        </mxCell>
        <mxCell id="f7EbHPb4pMbMoE2O3Rs9-51" style="edgeStyle=none;rounded=0;orthogonalLoop=1;jettySize=auto;html=1;" edge="1" parent="1" source="f7EbHPb4pMbMoE2O3Rs9-45">
          <mxGeometry relative="1" as="geometry">
            <mxPoint x="100" y="380" as="targetPoint" />
          </mxGeometry>
        </mxCell>
        <mxCell id="f7EbHPb4pMbMoE2O3Rs9-45" value="" style="rounded=0;whiteSpace=wrap;html=1;" vertex="1" parent="1">
          <mxGeometry x="210" y="270" width="130" height="220" as="geometry" />
        </mxCell>
        <mxCell id="f7EbHPb4pMbMoE2O3Rs9-47" value="Seg7" style="text;html=1;align=center;verticalAlign=middle;resizable=0;points=[];autosize=1;strokeColor=none;fillColor=none;" vertex="1" parent="1">
          <mxGeometry x="250" y="270" width="50" height="30" as="geometry" />
        </mxCell>
        <mxCell id="f7EbHPb4pMbMoE2O3Rs9-49" value="count" style="text;html=1;align=center;verticalAlign=middle;resizable=0;points=[];autosize=1;strokeColor=none;fillColor=none;" vertex="1" parent="1">
          <mxGeometry x="430" y="365" width="50" height="30" as="geometry" />
        </mxCell>
        <mxCell id="f7EbHPb4pMbMoE2O3Rs9-50" value="count" style="text;html=1;align=center;verticalAlign=middle;resizable=0;points=[];autosize=1;strokeColor=none;fillColor=none;" vertex="1" parent="1">
          <mxGeometry x="290" y="365" width="50" height="30" as="geometry" />
        </mxCell>
        <mxCell id="f7EbHPb4pMbMoE2O3Rs9-52" value="Hex displays" style="text;html=1;align=center;verticalAlign=middle;resizable=0;points=[];autosize=1;strokeColor=none;fillColor=none;" vertex="1" parent="1">
          <mxGeometry y="365" width="90" height="30" as="geometry" />
        </mxCell>
        <mxCell id="f7EbHPb4pMbMoE2O3Rs9-53" value="GPIO[33] (LED)" style="text;html=1;align=center;verticalAlign=middle;resizable=0;points=[];autosize=1;strokeColor=none;fillColor=none;" vertex="1" parent="1">
          <mxGeometry x="705" y="180" width="110" height="30" as="geometry" />
        </mxCell>
        <mxCell id="f7EbHPb4pMbMoE2O3Rs9-54" value="GPIO[35] (LED)" style="text;html=1;align=center;verticalAlign=middle;resizable=0;points=[];autosize=1;strokeColor=none;fillColor=none;" vertex="1" parent="1">
          <mxGeometry x="705" y="100" width="110" height="30" as="geometry" />
        </mxCell>
        <mxCell id="f7EbHPb4pMbMoE2O3Rs9-58" style="edgeStyle=orthogonalEdgeStyle;rounded=0;orthogonalLoop=1;jettySize=auto;html=1;entryX=1.006;entryY=0.477;entryDx=0;entryDy=0;entryPerimeter=0;" edge="1" parent="1" source="f7EbHPb4pMbMoE2O3Rs9-24" target="f7EbHPb4pMbMoE2O3Rs9-53">
          <mxGeometry relative="1" as="geometry">
            <Array as="points">
              <mxPoint x="930" y="325" />
              <mxPoint x="930" y="194" />
            </Array>
          </mxGeometry>
        </mxCell>
        <mxCell id="f7EbHPb4pMbMoE2O3Rs9-59" style="edgeStyle=orthogonalEdgeStyle;rounded=0;orthogonalLoop=1;jettySize=auto;html=1;entryX=0.99;entryY=0.501;entryDx=0;entryDy=0;entryPerimeter=0;" edge="1" parent="1" source="f7EbHPb4pMbMoE2O3Rs9-25" target="f7EbHPb4pMbMoE2O3Rs9-54">
          <mxGeometry relative="1" as="geometry">
            <Array as="points">
              <mxPoint x="1060" y="380" />
              <mxPoint x="1060" y="115" />
            </Array>
          </mxGeometry>
        </mxCell>
      </root>
    </mxGraphModel>
  </diagram>
</mxfile>
